ffmpeg version 6.1.1-3ubuntu5 Copyright (c) 2000-2023 the FFmpeg developers
  built with gcc 13 (Ubuntu 13.2.0-23ubuntu3)
  configuration: --prefix=/usr --extra-version=3ubuntu5 --toolchain=hardened --libdir=/usr/lib/x86_64-linux-gnu --incdir=/usr/include/x86_64-linux-gnu --arch=amd64 --enable-gpl --disable-stripping --disable-omx --enable-gnutls --enable-libaom --enable-libass --enable-libbs2b --enable-libcaca --enable-libcdio --enable-libcodec2 --enable-libdav1d --enable-libflite --enable-libfontconfig --enable-libfreetype --enable-libfribidi --enable-libglslang --enable-libgme --enable-libgsm --enable-libharfbuzz --enable-libmp3lame --enable-libmysofa --enable-libopenjpeg --enable-libopenmpt --enable-libopus --enable-librubberband --enable-libshine --enable-libsnappy --enable-libsoxr --enable-libspeex --enable-libtheora --enable-libtwolame --enable-libvidstab --enable-libvorbis --enable-libvpx --enable-libwebp --enable-libx265 --enable-libxml2 --enable-libxvid --enable-libzimg --enable-openal --enable-opencl --enable-opengl --disable-sndio --enable-libvpl --disable-libmfx --enable-libdc1394 --enable-libdrm --enable-libiec61883 --enable-chromaprint --enable-frei0r --enable-ladspa --enable-libbluray --enable-libjack --enable-libpulse --enable-librabbitmq --enable-librist --enable-libsrt --enable-libssh --enable-libsvtav1 --enable-libx264 --enable-libzmq --enable-libzvbi --enable-lv2 --enable-sdl2 --enable-libplacebo --enable-librav1e --enable-pocketsphinx --enable-librsvg --enable-libjxl --enable-shared
  libavutil      58. 29.100 / 58. 29.100
  libavcodec     60. 31.102 / 60. 31.102
  libavformat    60. 16.100 / 60. 16.100
  libavdevice    60.  3.100 / 60.  3.100
  libavfilter     9. 12.100 /  9. 12.100
  libswscale      7.  5.100 /  7.  5.100
  libswresample   4. 12.100 /  4. 12.100
  libpostproc    57.  3.100 / 57.  3.100
[x11grab @ 0x5929b7933080] Stream #0: not enough frames to estimate rate; consider increasing probesize
Input #0, x11grab, from ':0.0':
  Duration: N/A, start: 1766570257.311064, bitrate: 1448067 kb/s
  Stream #0:0: Video: rawvideo (BGR[0] / 0x524742), bgr0, 1718x878, 1448067 kb/s, 30 fps, 1000k tbr, 1000k tbn
Stream mapping:
  Stream #0:0 -> #0:0 (rawvideo (native) -> h264 (libx264))
Press [q] to stop, [?] for help
[libx264 @ 0x5929b793cf00] frame MB size (108x55) > level limit (1620)
[libx264 @ 0x5929b793cf00] MB rate (178200) > level limit (40500)
[libx264 @ 0x5929b793cf00] using cpu capabilities: MMX2 SSE2Fast SSSE3 SSE4.2 AVX FMA3 BMI2 AVX2
[libx264 @ 0x5929b793cf00] profile Constrained Baseline, level 3.0, 4:2:0, 8-bit
Output #0, h264, to 'pipe:':
  Metadata:
    encoder         : Lavf60.16.100
  Stream #0:0: Video: h264, yuv420p(tv, progressive), 1718x878, q=2-31, 30 fps, 30 tbn
    Metadata:
      encoder         : Lavc60.31.102 libx264
    Side data:
      cpb: bitrate max/min/avg: 0/0/0 buffer size: 0 vbv_delay: N/A
frame=    0 fps=0.0 q=20.0 size=       0kB time=00:00:00.00 bitrate=N/A speed=N/A    frame=   17 fps=0.0 q=23.0 size=     605kB time=00:00:00.56 bitrate=8749.3kbits/s speed=1.08x    frame=   32 fps= 31 q=26.0 size=    1030kB time=00:00:01.06 bitrate=7913.3kbits/s speed=1.04x    frame=   48 fps= 31 q=25.0 size=    1274kB time=00:00:01.60 bitrate=6524.2kbits/s speed=1.03x    frame=   64 fps= 31 q=25.0 size=    1737kB time=00:00:02.13 bitrate=6669.0kbits/s speed=1.02x    frame=   79 fps= 30 q=26.0 size=    2068kB time=00:00:02.63 bitrate=6433.3kbits/s speed=1.02x    frame=   95 fps= 30 q=21.0 size=    2567kB time=00:00:03.16 bitrate=6639.9kbits/s speed=1.01x    frame=  110 fps= 30 q=24.0 size=    2810kB time=00:00:03.66 bitrate=6278.7kbits/s speed=1.01x    frame=  125 fps= 30 q=25.0 size=    3268kB time=00:00:04.16 bitrate=6424.4kbits/s speed=1.01x    frame=  141 fps= 30 q=23.0 size=    3453kB time=00:00:04.70 bitrate=6018.5kbits/s speed=1.01x    frame=  156 fps= 30 q=21.0 size=    3874kB time=00:00:05.20 bitrate=6102.5kbits/s speed=1.01x    frame=  171 fps= 30 q=24.0 size=    4125kB time=00:00:05.70 bitrate=5928.1kbits/s speed=1.01x    frame=  188 fps= 30 q=18.0 size=    4709kB time=00:00:06.26 bitrate=6155.9kbits/s dup=1 drop=0 speed=1.01x    frame=  203 fps= 30 q=25.0 size=    4929kB time=00:00:06.76 bitrate=5967.4kbits/s dup=1 drop=0 speed=1.01x    frame=  219 fps= 30 q=21.0 size=    5393kB time=00:00:07.30 bitrate=6051.9kbits/s dup=1 drop=0 speed=1.01x    frame=  235 fps= 30 q=19.0 size=    5755kB time=00:00:07.83 bitrate=6018.4kbits/s dup=1 drop=0 speed=1.01x    frame=  250 fps= 30 q=23.0 size=    6188kB time=00:00:08.33 bitrate=6083.5kbits/s dup=1 drop=0 speed=1.01x    frame=  265 fps= 30 q=21.0 size=    6351kB time=00:00:08.83 bitrate=5890.0kbits/s dup=1 drop=0 speed=1.01x    frame=  281 fps= 30 q=24.0 size=    6794kB time=00:00:09.36 bitrate=5942.3kbits/s dup=1 drop=0 speed=1.01x    frame=  297 fps= 30 q=23.0 size=    7026kB time=00:00:09.90 bitrate=5813.8kbits/s dup=1 drop=0 speed=1.01x    frame=  313 fps= 30 q=20.0 size=    7464kB time=00:00:10.40 bitrate=5879.6kbits/s dup=1 drop=0 speed=1.01x    frame=  327 fps= 30 q=18.0 size=    7632kB time=00:00:10.90 bitrate=5735.6kbits/s dup=1 drop=0 speed=1.01x    frame=  343 fps= 30 q=24.0 size=    8070kB time=00:00:11.43 bitrate=5781.9kbits/s dup=1 drop=0 speed=1.01x    frame=  360 fps= 30 q=23.0 size=    8417kB time=00:00:11.96 bitrate=5762.3kbits/s dup=1 drop=0 speed=1.01x    frame=  375 fps= 30 q=22.0 size=    8742kB time=00:00:12.50 bitrate=5729.1kbits/s dup=1 drop=0 speed=1.01x    frame=  391 fps= 30 q=25.0 size=    8991kB time=00:00:13.03 bitrate=5651.1kbits/s dup=1 drop=0 speed=1.01x    frame=  414 fps= 30 q=13.0 size=    9733kB time=00:00:13.80 bitrate=5777.9kbits/s dup=10 drop=0 speed=   1x    frame=  433 fps= 30 q=22.0 size=   10315kB time=00:00:14.43 bitrate=5854.4kbits/s dup=10 drop=8 speed=1.01x    frame=  449 fps= 30 q=19.0 size=   10604kB time=00:00:14.96 bitrate=5804.3kbits/s dup=10 drop=8 speed=1.01x    frame=  465 fps= 30 q=22.0 size=   10881kB time=00:00:15.50 bitrate=5750.9kbits/s dup=10 drop=8 speed=1.01x    frame=  481 fps= 30 q=25.0 size=   11206kB time=00:00:16.03 bitrate=5725.8kbits/s dup=10 drop=8 speed=1.01x    frame=  498 fps= 30 q=23.0 size=   11568kB time=00:00:16.56 bitrate=5720.1kbits/s dup=10 drop=8 speed=1.01x    frame=  513 fps= 30 q=22.0 size=   11717kB time=00:00:17.10 bitrate=5613.0kbits/s dup=10 drop=8 speed=1.01x    frame=  529 fps= 30 q=13.0 size=   11826kB time=00:00:17.63 bitrate=5494.0kbits/s dup=10 drop=8 speed=1.01x    frame=  545 fps= 30 q=22.0 size=   11968kB time=00:00:18.16 bitrate=5396.8kbits/s dup=10 drop=8 speed=1.01x    frame=  560 fps= 30 q=23.0 size=   12576kB time=00:00:18.66 bitrate=5519.2kbits/s dup=10 drop=8 speed=1.01x    frame=  576 fps= 30 q=16.0 size=   12963kB time=00:00:19.20 bitrate=5531.0kbits/s dup=10 drop=8 speed=1.01x    frame=  591 fps= 30 q=23.0 size=   13335kB time=00:00:19.70 bitrate=5545.1kbits/s dup=10 drop=8 speed=1.01x    frame=  606 fps= 30 q=20.0 size=   13769kB time=00:00:20.20 bitrate=5583.8kbits/s dup=10 drop=8 speed=1.01x    frame=  622 fps= 30 q=21.0 size=   13959kB time=00:00:20.73 bitrate=5515.3kbits/s dup=10 drop=8 speed=1.01x    frame=  638 fps= 30 q=21.0 size=   14419kB time=00:00:21.26 bitrate=5554.3kbits/s dup=10 drop=8 speed=1.01x    frame=  653 fps= 30 q=23.0 size=   14731kB time=00:00:21.76 bitrate=5544.0kbits/s dup=10 drop=8 speed=   1x    frame=  668 fps= 30 q=22.0 size=   15195kB time=00:00:22.26 bitrate=5590.4kbits/s dup=10 drop=8 speed=   1x    frame=  685 fps= 30 q=23.0 size=   15429kB time=00:00:22.80 bitrate=5543.7kbits/s dup=10 drop=8 speed=   1x    frame=  700 fps= 30 q=19.0 size=   15886kB time=00:00:23.33 bitrate=5577.4kbits/s dup=10 drop=8 speed=   1x    frame=  716 fps= 30 q=24.0 size=   16141kB time=00:00:23.86 bitrate=5540.1kbits/s dup=10 drop=8 speed=   1x    frame=  732 fps= 30 q=23.0 size=   16750kB time=00:00:24.40 bitrate=5623.7kbits/s dup=10 drop=8 speed=   1x    frame=  747 fps= 30 q=24.0 size=   17040kB time=00:00:24.90 bitrate=5606.2kbits/s dup=10 drop=8 speed=   1x    frame=  763 fps= 30 q=15.0 size=   17394kB time=00:00:25.43 bitrate=5602.7kbits/s dup=10 drop=8 speed=   1x    frame=  779 fps= 30 q=25.0 size=   17645kB time=00:00:25.93 bitrate=5574.0kbits/s dup=10 drop=8 speed=   1x    frame=  793 fps= 30 q=24.0 size=   18115kB time=00:00:26.43 bitrate=5614.0kbits/s dup=10 drop=8 speed=   1x    frame=  810 fps= 30 q=20.0 size=   18401kB time=00:00:26.96 bitrate=5590.0kbits/s dup=10 drop=8 speed=   1x    frame=  824 fps= 30 q=25.0 size=   18817kB time=00:00:27.46 bitrate=5612.4kbits/s dup=10 drop=8 speed=   1x    frame=  840 fps= 30 q=21.0 size=   19208kB time=00:00:28.00 bitrate=5619.6kbits/s dup=10 drop=8 speed=   1x    frame=  855 fps= 30 q=22.0 size=   19637kB time=00:00:28.50 bitrate=5644.4kbits/s dup=10 drop=8 speed=   1x    frame=  870 fps= 30 q=20.0 size=   20031kB time=00:00:29.00 bitrate=5658.5kbits/s dup=10 drop=8 speed=   1x    frame=  886 fps= 30 q=18.0 size=   20495kB time=00:00:29.53 bitrate=5684.9kbits/s dup=10 drop=8 speed=   1x    frame=  902 fps= 30 q=24.0 size=   20877kB time=00:00:30.06 bitrate=5688.3kbits/s dup=10 drop=8 speed=   1x    frame=  917 fps= 30 q=23.0 size=   21142kB time=00:00:30.56 bitrate=5666.2kbits/s dup=10 drop=8 speed=   1x    frame=  932 fps= 30 q=26.0 size=   21548kB time=00:00:31.06 bitrate=5681.9kbits/s dup=10 drop=8 speed=   1x    frame=  948 fps= 30 q=25.0 size=   21839kB time=00:00:31.60 bitrate=5661.5kbits/s dup=10 drop=8 speed=   1x    frame=  964 fps= 30 q=25.0 size=   22307kB time=00:00:32.13 bitrate=5686.9kbits/s dup=10 drop=8 speed=   1x    [vost#0:0/libx264 @ 0x5929b793cb40] Error submitting a packet to the muxer: Broken pipe
[out#0/h264 @ 0x5929b793b780] Error muxing a packet
[out#0/h264 @ 0x5929b793b780] Error writing trailer: Broken pipe
[out#0/h264 @ 0x5929b793b780] Error closing file: Broken pipe
[out#0/h264 @ 0x5929b793b780] video:22532kB audio:0kB subtitle:0kB other streams:0kB global headers:0kB muxing overhead: unknown
frame=  976 fps= 30 q=22.0 Lsize=   22490kB time=00:00:32.53 bitrate=5663.1kbits/s dup=10 drop=8 speed=   1x    
[libx264 @ 0x5929b793cf00] frame I:33    Avg QP:18.64  size:195189
[libx264 @ 0x5929b793cf00] frame P:944   Avg QP:21.81  size: 17630
[libx264 @ 0x5929b793cf00] mb I  I16..4: 100.0%  0.0%  0.0%
[libx264 @ 0x5929b793cf00] mb P  I16..4:  2.3%  0.0%  0.0%  P16..4:  8.7%  0.0%  0.0%  0.0%  0.0%    skip:89.0%
[libx264 @ 0x5929b793cf00] coded y,uvDC,uvAC intra: 34.7% 34.0% 31.1% inter: 3.6% 5.7% 4.4%
[libx264 @ 0x5929b793cf00] i16 v,h,dc,p: 62% 30%  7%  2%
[libx264 @ 0x5929b793cf00] i8c dc,h,v,p: 66% 16% 17%  1%
[libx264 @ 0x5929b793cf00] kb/s:5670.62
Conversion failed!
